<mxfile host="app.diagrams.net" agent="Mozilla/5.0 (Windows NT 10.0; Win64; x64) AppleWebKit/537.36 (KHTML, like Gecko) Chrome/140.0.0.0 Safari/537.36 Edg/140.0.0.0" version="28.2.4">
  <diagram name="Página-1" id="Yfi7pgNj1BaRvFx4JkQ3">
    <mxGraphModel dx="1418" dy="786" grid="1" gridSize="10" guides="1" tooltips="1" connect="1" arrows="1" fold="1" page="1" pageScale="1" pageWidth="827" pageHeight="1169" math="0" shadow="0">
      <root>
        <mxCell id="0" />
        <mxCell id="1" parent="0" />
        <mxCell id="A08XVCGmk8BSYfqK7XWF-12" value="" style="edgeStyle=orthogonalEdgeStyle;rounded=0;orthogonalLoop=1;jettySize=auto;html=1;" edge="1" parent="1" source="A08XVCGmk8BSYfqK7XWF-1" target="A08XVCGmk8BSYfqK7XWF-2">
          <mxGeometry relative="1" as="geometry" />
        </mxCell>
        <mxCell id="A08XVCGmk8BSYfqK7XWF-1" value="Início" style="ellipse;whiteSpace=wrap;html=1;fillColor=#f8cecc;strokeColor=#b85450;" vertex="1" parent="1">
          <mxGeometry x="354" y="10" width="120" height="80" as="geometry" />
        </mxCell>
        <mxCell id="A08XVCGmk8BSYfqK7XWF-13" value="" style="edgeStyle=orthogonalEdgeStyle;rounded=0;orthogonalLoop=1;jettySize=auto;html=1;" edge="1" parent="1" source="A08XVCGmk8BSYfqK7XWF-2" target="A08XVCGmk8BSYfqK7XWF-3">
          <mxGeometry relative="1" as="geometry" />
        </mxCell>
        <mxCell id="A08XVCGmk8BSYfqK7XWF-2" value="Ler Numero" style="shape=parallelogram;perimeter=parallelogramPerimeter;whiteSpace=wrap;html=1;fixedSize=1;fillColor=#dae8fc;strokeColor=#6c8ebf;" vertex="1" parent="1">
          <mxGeometry x="354" y="130" width="120" height="60" as="geometry" />
        </mxCell>
        <mxCell id="A08XVCGmk8BSYfqK7XWF-14" value="" style="edgeStyle=orthogonalEdgeStyle;rounded=0;orthogonalLoop=1;jettySize=auto;html=1;" edge="1" parent="1" source="A08XVCGmk8BSYfqK7XWF-3" target="A08XVCGmk8BSYfqK7XWF-5">
          <mxGeometry relative="1" as="geometry" />
        </mxCell>
        <mxCell id="A08XVCGmk8BSYfqK7XWF-15" value="Sim" style="edgeLabel;html=1;align=center;verticalAlign=middle;resizable=0;points=[];" vertex="1" connectable="0" parent="A08XVCGmk8BSYfqK7XWF-14">
          <mxGeometry x="-0.3" y="1" relative="1" as="geometry">
            <mxPoint x="-1" as="offset" />
          </mxGeometry>
        </mxCell>
        <mxCell id="A08XVCGmk8BSYfqK7XWF-17" value="" style="edgeStyle=orthogonalEdgeStyle;rounded=0;orthogonalLoop=1;jettySize=auto;html=1;" edge="1" parent="1" source="A08XVCGmk8BSYfqK7XWF-3" target="A08XVCGmk8BSYfqK7XWF-8">
          <mxGeometry relative="1" as="geometry" />
        </mxCell>
        <mxCell id="A08XVCGmk8BSYfqK7XWF-18" value="Não" style="edgeLabel;html=1;align=center;verticalAlign=middle;resizable=0;points=[];" vertex="1" connectable="0" parent="A08XVCGmk8BSYfqK7XWF-17">
          <mxGeometry x="-0.0816" y="-1" relative="1" as="geometry">
            <mxPoint as="offset" />
          </mxGeometry>
        </mxCell>
        <mxCell id="A08XVCGmk8BSYfqK7XWF-3" value="Numero = 0" style="rhombus;whiteSpace=wrap;html=1;fillColor=#fff2cc;strokeColor=#d6b656;" vertex="1" parent="1">
          <mxGeometry x="346" y="230" width="136" height="100" as="geometry" />
        </mxCell>
        <mxCell id="A08XVCGmk8BSYfqK7XWF-16" value="" style="edgeStyle=orthogonalEdgeStyle;rounded=0;orthogonalLoop=1;jettySize=auto;html=1;" edge="1" parent="1" source="A08XVCGmk8BSYfqK7XWF-5" target="A08XVCGmk8BSYfqK7XWF-6">
          <mxGeometry relative="1" as="geometry" />
        </mxCell>
        <mxCell id="A08XVCGmk8BSYfqK7XWF-5" value="Escrever &quot;Ha ha que piada&quot;" style="shape=parallelogram;perimeter=parallelogramPerimeter;whiteSpace=wrap;html=1;fixedSize=1;fillColor=#dae8fc;strokeColor=#6c8ebf;" vertex="1" parent="1">
          <mxGeometry x="321" y="370" width="186" height="60" as="geometry" />
        </mxCell>
        <mxCell id="A08XVCGmk8BSYfqK7XWF-6" value="Fim" style="ellipse;whiteSpace=wrap;html=1;fillColor=#d5e8d4;strokeColor=#82b366;" vertex="1" parent="1">
          <mxGeometry x="354" y="470" width="120" height="80" as="geometry" />
        </mxCell>
        <mxCell id="A08XVCGmk8BSYfqK7XWF-19" value="" style="edgeStyle=orthogonalEdgeStyle;rounded=0;orthogonalLoop=1;jettySize=auto;html=1;" edge="1" parent="1" source="A08XVCGmk8BSYfqK7XWF-8" target="A08XVCGmk8BSYfqK7XWF-10">
          <mxGeometry relative="1" as="geometry" />
        </mxCell>
        <mxCell id="A08XVCGmk8BSYfqK7XWF-20" value="Sim" style="edgeLabel;html=1;align=center;verticalAlign=middle;resizable=0;points=[];" vertex="1" connectable="0" parent="A08XVCGmk8BSYfqK7XWF-19">
          <mxGeometry x="-0.3" y="1" relative="1" as="geometry">
            <mxPoint as="offset" />
          </mxGeometry>
        </mxCell>
        <mxCell id="A08XVCGmk8BSYfqK7XWF-21" value="" style="edgeStyle=orthogonalEdgeStyle;rounded=0;orthogonalLoop=1;jettySize=auto;html=1;" edge="1" parent="1" source="A08XVCGmk8BSYfqK7XWF-8" target="A08XVCGmk8BSYfqK7XWF-11">
          <mxGeometry relative="1" as="geometry" />
        </mxCell>
        <mxCell id="A08XVCGmk8BSYfqK7XWF-22" value="Não" style="edgeLabel;html=1;align=center;verticalAlign=middle;resizable=0;points=[];" vertex="1" connectable="0" parent="A08XVCGmk8BSYfqK7XWF-21">
          <mxGeometry x="0.0192" y="1" relative="1" as="geometry">
            <mxPoint as="offset" />
          </mxGeometry>
        </mxCell>
        <mxCell id="A08XVCGmk8BSYfqK7XWF-8" value="Numero &amp;gt; 0" style="rhombus;whiteSpace=wrap;html=1;fillColor=#fff2cc;strokeColor=#d6b656;" vertex="1" parent="1">
          <mxGeometry x="580" y="230" width="136" height="100" as="geometry" />
        </mxCell>
        <mxCell id="A08XVCGmk8BSYfqK7XWF-24" style="edgeStyle=orthogonalEdgeStyle;rounded=0;orthogonalLoop=1;jettySize=auto;html=1;" edge="1" parent="1" source="A08XVCGmk8BSYfqK7XWF-10" target="A08XVCGmk8BSYfqK7XWF-2">
          <mxGeometry relative="1" as="geometry">
            <Array as="points">
              <mxPoint x="1060" y="400" />
              <mxPoint x="1060" y="160" />
            </Array>
          </mxGeometry>
        </mxCell>
        <mxCell id="A08XVCGmk8BSYfqK7XWF-10" value="Escrever &quot;O número que introduziu é positivo&quot;" style="shape=parallelogram;perimeter=parallelogramPerimeter;whiteSpace=wrap;html=1;fixedSize=1;fillColor=#dae8fc;strokeColor=#6c8ebf;" vertex="1" parent="1">
          <mxGeometry x="555" y="370" width="186" height="60" as="geometry" />
        </mxCell>
        <mxCell id="A08XVCGmk8BSYfqK7XWF-23" style="edgeStyle=orthogonalEdgeStyle;rounded=0;orthogonalLoop=1;jettySize=auto;html=1;" edge="1" parent="1" source="A08XVCGmk8BSYfqK7XWF-11" target="A08XVCGmk8BSYfqK7XWF-2">
          <mxGeometry relative="1" as="geometry">
            <Array as="points">
              <mxPoint x="903" y="160" />
            </Array>
          </mxGeometry>
        </mxCell>
        <mxCell id="A08XVCGmk8BSYfqK7XWF-11" value="Escrever &quot;O número que introduziu é negativo&quot;" style="shape=parallelogram;perimeter=parallelogramPerimeter;whiteSpace=wrap;html=1;fixedSize=1;fillColor=#dae8fc;strokeColor=#6c8ebf;" vertex="1" parent="1">
          <mxGeometry x="810" y="250" width="186" height="60" as="geometry" />
        </mxCell>
      </root>
    </mxGraphModel>
  </diagram>
</mxfile>
